<?xml version="1.0" encoding="UTF-8"?>
<svg id="svg9" xmlns="http://www.w3.org/2000/svg" viewBox="0 0 666.67 666.67">
  <defs>
    <style>
      .cls-1 {
        fill: none;
      }

      .cls-2 {
        fill: #0866ff;
      }

      .cls-3 {
        fill: #fff;
      }
    </style>
  </defs>
  <rect class="cls-1" x="-611.55" y="-148.33" width="933.33" height="933.33"/>
  <g>
    <path id="path29" class="cls-2" d="M666.67,333.33C666.67,149.24,517.43,0,333.33,0S0,149.24,0,333.33C0,489.66,107.62,620.83,252.81,656.85v-221.66h-68.74v-101.86h68.74v-43.89c0-113.46,51.34-166.04,162.73-166.04,21.12,0,57.56,4.14,72.46,8.28v92.34c-7.87-.83-21.53-1.24-38.51-1.24-54.66,0-75.78,20.7-75.78,74.53v36.02h108.88l-18.7,101.86h-90.17v229.03c165.05-19.93,292.95-160.47,292.95-330.89"/>
    <path id="path33" class="cls-3" d="M463.89,435.2l18.71-101.86h-108.88v-36.03c0-53.83,21.12-74.53,75.77-74.53,16.98,0,30.64.41,38.51,1.24v-92.34c-14.91-4.14-51.35-8.28-72.46-8.28-111.39,0-162.73,52.59-162.73,166.04v43.89h-68.74v101.86h68.74v221.66c25.79,6.4,52.76,9.82,80.53,9.82,13.67,0,27.14-.84,40.38-2.44v-229.03h90.17Z"/>
  </g>
</svg>