<?xml version="1.0" encoding="UTF-8"?>
<svg id="svg9" xmlns="http://www.w3.org/2000/svg" viewBox="0 0 666.67 666.67">
  <defs>
    <style>
      .cls-1 {
        fill: #fff;
      }
    </style>
  </defs>
  <path class="cls-1" d="M416.66,666.67c-9.91,0-18.93-9.41-18.93-19.73l-.08-156.4c0-18.51-14.31-33.04-32.54-33.1l-61.4-.19c-19.43,0-33.99,14.36-33.99,33.37l-.06,156.29c0,10.16-9.13,19.76-18.82,19.76l-107.75-.11c-38.5-.06-71.06-31.68-71.15-69.06l-.45-203.19c-2.17.33-4.45.45-6.74.45-25.41,0-46.96-12.53-57.65-33.51-12.44-24.41-7.82-52.91,11.75-72.62L291.99,15.5c9.88-9.85,25.11-15.5,41.75-15.5s31.84,5.65,41.72,15.53l274.37,274.37c12.83,13.36,18.01,29.28,16.28,50.1-2.59,31.73-29,54.75-62.82,54.75-2.53,0-5.07-.14-7.65-.42l.25,197.9c0,41.64-31.56,74.26-71.87,74.29l-107.36.14ZM90.36,355.17c11.94,0,20.6,8.77,20.6,20.88v218.72c.53,18.84,14.7,32.54,33.71,32.54l85.9-.31-.42-133.91c-.06-19.96,6.99-38.63,19.79-52.61,13.19-14.39,31.43-22.32,51.3-22.35l64.19-.06c40.19,0,71.59,31.79,71.59,72.4l.06,136.67,85.62.17c19.01,0,33.15-13.69,33.76-32.54v-218.72c0-12.11,8.68-20.88,20.65-20.88l26.64.08c9.88,0,19.37-5.73,22.18-13.33,3.45-9.19,1.48-18.7-5.29-25.44L350.19,45.98c-4.65-4.68-10.52-7.24-16.48-7.24s-11.8,2.56-16.45,7.21L45.49,317.82c-7.26,7.26-6.82,18.29-3.15,25.97,3.09,6.4,12.41,11.44,21.21,11.44l26.8-.06Z"/>
  <path class="cls-1" d="M365.13,457.28l-61.42-.18c-19.09-.06-34.12,14.03-34.13,33.5l-.06,156.31c0,9.86-8.74,19.63-18.66,19.62l-107.75-.12c-37.21-.04-70.93-30.25-71.02-68.89l-.45-203.21c-27.8,2.41-52.54-9.87-64.38-33.12-12.13-23.83-8.32-52.3,11.72-72.44L292.11,15.62c20.56-20.56,62.5-20.73,83.24.01l274.36,274.38c13.56,14.1,17.87,30.33,16.27,49.99-2.83,34.81-34.53,57.97-70.33,54.2l.09,198.04c.02,40.74-30.42,74.1-71.74,74.15l-107.36.13c-10.13.01-18.77-9.7-18.78-19.6l-.08-156.4c0-17.92-13.54-33.19-32.67-33.24ZM365.41,418.21c40.81-.05,71.46,33,71.47,72.26l.06,136.68,85.73.29c18.73.06,33.3-13.67,33.91-32.66v-218.74c.01-12.2,8.66-20.77,20.59-20.73l26.56.08c9.8.03,19.49-5.72,22.35-13.41,3.3-8.89,1.79-18.49-5.32-25.6L350.31,45.86c-9.71-9.71-23.48-9.69-33.16,0L45.39,317.71c-7.01,7.01-7.08,17.95-3.17,26.11,3.12,6.52,12.64,11.56,21.43,11.55l26.64-.05c11.9-.02,20.51,8.53,20.51,20.72v218.74c.53,19.05,15.24,32.72,33.96,32.66l85.8-.29-.27-134.05c-.08-40.34,29.14-74.76,70.93-74.81l64.19-.08Z"/>
</svg>