<?xml version="1.0" encoding="UTF-8"?>
<svg id="svg9" xmlns="http://www.w3.org/2000/svg" viewBox="0 0 666.67 666.67">
  <defs>
    <style>
      .cls-1 {
        fill: #e60913;
      }

      .cls-2 {
        fill: #fff;
      }

      .cls-3 {
        fill: #202020;
      }
    </style>
  </defs>
  <g id="Y0Bbzp.tif">
    <g>
      <path class="cls-2" d="M334.1,77.51c0-39.93-32.34-72.3-72.23-72.3s-72.23,32.37-72.23,72.3,32.34,72.3,72.23,72.3,72.23-32.37,72.23-72.3ZM502.73,286.25c11.85-2.78,19.81-12.35,19.02-23.75l-5.93-85.57c-.82-11.87-11.26-21.78-23.53-20.98l-94.83,6.2c-13.37.87-22.71,11.56-21.76,25.07l5.95,84.87c.82,11.68,11.41,21.33,23.27,20.56l97.81-6.39ZM360.51,563.6l6.69,75.48c.63,7.14,5.89,15.92,10.97,18.25,6.31,2.9,15.71,2.3,22.11.39,16.64-4.97,30.51-17.82,29.02-36.02l-5.74-70.09c-1.54-18.88-6.32-36.25-14.34-53.16l-53.89-113.64c-2.5-5.27-.81-16.96-.53-22.45l94.82-4.79c11.8-.6,17.86-15.62,16.33-24.54-1.37-8-9.44-19.58-19.73-19.84l-64.85-1.66c-4.34-.11-10.64-5.1-11.34-9.46l-17.67-110.71c-1.84-11.52-13.53-18.86-24.05-18.4l-97.74,4.25c-12.33.54-23.09,9.76-23.1,22.93l-.2,223c-.03,30.86-2.42,59.28-4.37,90.16-.63,10.02-4.91,22.8-10.01,31.1l-43.64,71.12c-9.86,16.07-2.15,31.69,13.07,40.31,15.38,8.71,33.58,8.27,43.7-8.23l43.83-71.44c7.63-12.43,12.1-27.77,14.04-42.67l12.02-92.38c2.86-2.45,11.93-3.44,15.16-1.52l57.47,88.81c6.32,9.77,10.86,22.97,11.94,35.2Z"/>
      <path class="cls-3" d="M360.51,563.6c-1.08-12.23-5.62-25.43-11.94-35.2l-57.47-88.81c-3.23-1.91-12.3-.92-15.16,1.52l-12.02,92.38c-1.94,14.9-6.41,30.24-14.04,42.67l-43.83,71.44c-10.12,16.5-28.32,16.94-43.7,8.23-15.22-8.62-22.93-24.24-13.07-40.31l43.64-71.12c5.09-8.3,9.37-21.08,10.01-31.1,1.94-30.88,4.34-59.31,4.37-90.16l.2-223c.01-13.17,10.77-22.4,23.1-22.93l97.74-4.25c10.51-.46,22.21,6.88,24.05,18.4l17.67,110.71c.7,4.36,7,9.34,11.34,9.46l64.85,1.66c10.29.26,18.36,11.84,19.73,19.84,1.53,8.91-4.53,23.94-16.33,24.54l-94.82,4.79c-.28,5.49-1.96,17.17.53,22.45l53.89,113.64c8.02,16.91,12.79,34.29,14.34,53.16l5.74,70.09c1.49,18.2-12.38,31.04-29.02,36.02-6.4,1.91-15.8,2.51-22.11-.39-5.08-2.33-10.33-11.12-10.97-18.25l-6.69-75.48Z"/>
      <path class="cls-1" d="M502.73,286.25l-97.81,6.39c-11.86.78-22.45-8.88-23.27-20.56l-5.95-84.87c-.95-13.52,8.39-24.2,21.76-25.07l94.83-6.2c12.26-.8,22.71,9.11,23.53,20.98l5.93,85.57c.79,11.4-7.16,20.96-19.02,23.75Z"/>
      <ellipse class="cls-3" cx="261.87" cy="77.51" rx="72.23" ry="72.3"/>
    </g>
  </g>
</svg>