<?xml version="1.0" encoding="UTF-8"?>
<svg id="svg9" xmlns="http://www.w3.org/2000/svg" viewBox="0 0 666.67 666.67">
  <defs>
    <style>
      .cls-1 {
        fill: #202020;
      }
    </style>
  </defs>
  <path class="cls-1" d="M509.97,497.3c-.05,40.87-34.6,76.6-75.33,76.61l-201.88.08c-40.66.02-75.91-34.92-76-75.65l-.44-219.77c-23.08-3.44-40.49-22.84-40.48-46.47v-32.28c-.52-25.8,19.87-47.99,46.12-48.03l84.64-.12.37-13.9c.62-23.77,20.11-44.91,44.5-44.96l82.07-.15c25.41-.05,45.88,20.86,46.18,46.01l.16,12.97,84.78.14c25.93.04,46.22,21.73,46.13,47.24l.05,32.27c.04,23.98-16.99,43.78-40.58,47.28l-.28,218.72ZM390.4,151.68c.23-5.22.33-8.61.17-13.1-.31-8.32-7.23-16.69-16.27-16.68l-82.07.03c-9.33,0-16.19,8.92-16.27,17.46-.04,4.47.04,7.98.22,12.3h114.23ZM504.13,250.07c9.94-.56,17.35-7.87,17.36-17.23l.04-34.62c.01-8.94-7.47-17.33-17.06-17.33l-341.59-.02c-9.88,0-17.78,7.79-17.8,17.41l-.05,33.88c-.02,9.78,7.66,17.91,17.88,17.91h341.21ZM434.4,545.12c25.08-2.05,46.34-22.32,46.37-47.71l.26-218.2-295.4-.02-.04,218.22c1.44,26.04,21.98,46.59,48.07,47.71h200.74Z"/>
  <path class="cls-1" d="M400.82,486.61c0,8.59-7.98,13.99-14.71,13.86-8.22-.16-14.43-6.46-14.43-15.05v-146.25c-.01-8.64,6.12-15.06,14.35-15.26,7.54-.18,14.83,5.86,14.83,14.45l-.04,148.24Z"/>
  <path class="cls-1" d="M294.95,485.05c0,8.82-5.77,14.78-13.79,15.36-6.92.5-15.32-5.03-15.32-13.46l-.03-149.32c0-8.25,7.77-13.91,14.75-13.74,8.32.2,14.39,6.63,14.39,15.29v145.87Z"/>
</svg>