<?xml version="1.0" encoding="UTF-8"?>
<svg id="svg9" xmlns="http://www.w3.org/2000/svg" viewBox="0 0 666.67 666.67">
  <defs>
    <style>
      .cls-1 {
        fill: #fff;
      }
    </style>
  </defs>
  <g id="_8Pa92T.tif" data-name="8Pa92T.tif">
    <g>
      <path class="cls-1" d="M567.78,376.65c34.33,51.32,44.27,124.87,41.45,185.69-2.51,54.24-45.25,101.39-102.61,101.41l-344.78.14c-56.87.02-100.34-45.64-103.48-99.74-3.52-60.47,6.87-135.14,40.49-186.39,24.06-36.68,66.23-59.2,110.96-53.44,10.38,1.34,22.35,11.51,31.11,17.31,118.35,78.34,190.23-12.87,215.15-16.85,44.45-7.1,87.4,15.53,111.71,51.88ZM466.4,361.91c-14.33,9-27.24,17.86-41.65,25.9-57.22,31.95-123.53,32.15-180.91.63-14.69-8.07-27.83-17.09-42.43-26.34-92.84-3.31-108.55,134.29-104.05,201.61,2.27,34.01,30.99,61.83,66.93,61.81l339.88-.12c36.4-.01,64.45-29.32,66.13-63.4,3.35-67.99-11.23-201.8-103.89-200.1Z"/>
      <path class="cls-1" d="M489.09,162.33c0,88.12-71.43,159.55-159.54,159.55s-159.54-71.43-159.54-159.55S241.43,2.78,329.54,2.78s159.54,71.43,159.54,159.55ZM450.33,162.34c0-66.71-54.08-120.79-120.78-120.79s-120.78,54.08-120.78,120.79,54.08,120.79,120.78,120.79,120.78-54.08,120.78-120.79Z"/>
    </g>
  </g>
</svg>