<?xml version="1.0" encoding="UTF-8"?>
<svg id="svg9" xmlns="http://www.w3.org/2000/svg" viewBox="0 0 666.67 666.67">
  <defs>
    <style>
      .cls-1 {
        fill: currentColor;
      }
    </style>
  </defs>
  <path class="cls-1" d="M331.52,648.3c-12.12,0-23.48-5.59-31.17-15.34l-160.83-203.9c-62.35-79.05-73.03-184.45-27.86-275.05C153.94,69.21,238.43,16.53,332.16,16.53c13.4,0,26.98,1.09,40.37,3.24,82.33,13.22,154.21,68.55,187.58,144.39,18.75,42.62,26.03,88.51,21.07,132.73-4.98,44.35-22.23,86.42-49.89,121.64l-168.4,214.45c-7.65,9.74-19.08,15.32-31.36,15.32ZM331.95,53.31c-75.82,0-143.55,39.47-181.18,105.58-45.14,78.94-39.45,174.27,14.5,242.86l166.23,211.36,170.84-215.93c23.99-31.47,38.86-68.27,43.02-106.46,4.17-38.22-2.45-77.23-19.13-112.83-16.37-36.16-42.07-66.77-74.28-88.49-32.19-21.7-70.29-34.1-110.16-35.87-3.27-.15-6.58-.22-9.84-.22Z"/>
  <path class="cls-1" d="M331.62,373.55c-62.29,0-112.98-50.68-112.98-112.98s50.68-112.98,112.98-112.98,112.98,50.68,112.98,112.98-50.68,112.98-112.98,112.98ZM331.63,183.91c-42.15,0-76.44,34.29-76.44,76.44s34.29,76.44,76.44,76.44,76.44-34.29,76.44-76.44-34.29-76.44-76.44-76.44Z"/>
</svg>
