<?xml version="1.0" encoding="UTF-8"?>
<svg id="svg9" xmlns="http://www.w3.org/2000/svg" viewBox="0 0 666.67 666.67">
  <g id="cBH7Ez.tif">
    <g fill="currentColor" stroke="currentColor" stroke-width="32" stroke-linejoin="round">
      <path d="M142.61,664.18c-32.16-.02-58.32-27.33-58.32-60.87l-.02-271.05c0-16.89,6.18-32.38,17.42-43.61,11.12-11.12,26.71-17.63,43.88-18.34l.96-.04v-76.32c0-51.06,18.24-99.01,51.36-134.99C231.25,22.7,276.96,1.73,326.6-.09c2.3-.08,4.64-.13,6.95-.13,48.56,0,94.66,18.35,129.81,51.67,35.81,33.95,55.77,79.59,56.19,128.53l.78,90.32.95.04c16.42.67,31.64,6.82,42.88,17.32,11.62,10.86,18.03,25.72,18.04,41.85l.19,273.62c.01,16.89-6.22,32.4-17.54,43.68-11.43,11.38-27.3,17.65-44.7,17.65l-377.54-.26ZM152.72,310.24c-15.87,0-28.78,12.91-28.78,28.78v256.93c0,15.87,12.91,28.78,28.78,28.78h361.27c15.87,0,28.78-12.91,28.78-28.78v-256.93c0-15.87-12.91-28.78-28.78-28.78H152.72ZM331.95,39.47c-37.98.33-74.02,14.78-101.49,40.69-28.14,26.55-43.64,62.09-43.63,100.09l.02,90.36,293.45-.15-.09-90.28c-1.71-38.65-17.8-74.31-45.33-100.46-27.33-25.96-63.41-40.26-101.6-40.26-.45,0-.89,0-1.34,0Z"/>
      <path d="M333.31,560.27c-.34,0-.67,0-1.01-.02-11.92-.49-19.02-9.3-18.98-23.57l.1-42.55-.66-.24c-28.35-10.4-44.52-37.38-40.23-67.15,4.25-29.47,29.27-51.29,59.5-51.9.44,0,.88-.01,1.32-.01,30.36,0,55.22,20.49,60.45,49.84,5.46,30.63-10.55,58.47-39.84,69.27l-.65.24-.04,44.93c-.01,12.66-8.03,21.16-19.96,21.16ZM333.35,414.36c-12.11,0-21.96,9.84-21.96,21.94s9.85,21.94,21.96,21.94,21.96-9.84,21.96-21.94-9.85-21.94-21.96-21.94Z"/>
    </g>
  </g>
</svg>
