<?xml version="1.0" encoding="UTF-8"?>
<svg id="Layer_1" data-name="Layer 1" xmlns="http://www.w3.org/2000/svg" viewBox="0 0 1080 475.2">
  <defs>
    <style>
      .cls-1 {
        fill: #fff;
      }

      .cls-2 {
        fill: #0a0a0a;
      }
    </style>
  </defs>
  <g>
    <path class="cls-2" d="M244.38,293.11h0c-.15-13.86-2.37-25.82-6.64-35.7h0c-.96-2.24-2.02-4.34-3.18-6.35-3.5-6.05-7.9-11.16-13.16-15.31,2.36-2.22,4.68-4.81,6.95-7.73,8.48-10.91,12.49-25.32,11.93-42.83v-.04c-.3-8.45-2.42-16.26-6.3-23.23-3.83-6.85-9.4-12.93-16.57-18.07-13.2-9.45-30.94-14.24-52.72-14.24-.77,0-1.54,0-2.31,0h-42.57l.26,223.83,43.51.32h3.94c6.13,0,11.27-.13,15.24-.39,4.05-.25,9.02-.79,15.22-1.64,7.15-.98,13-2.72,17.91-5.33,4.45-2.37,8.91-5.5,13.27-9.29,1.08-.94,2.1-1.95,3.06-3.02,3.65-4.07,6.5-9.08,8.49-14.96,1.19-3.52,2.09-7.33,2.71-11.41v-.03c.56-3.63.88-7.49.96-11.53v-.13c.02-.98.02-1.96,0-2.93ZM177.55,298.52c-.97.92-1.96,1.73-2.97,2.45l-.45-32.49c1.19.33,2.65.8,4.41,1.45,1.52.56,2.16,1.33,2.6,2.05.45.73,1.22,2.57,1.36,6.63v.16c.63,14.51-3.57,18.45-4.95,19.75ZM172.49,180.92h.61c1.28,0,2.36.07,3.24.2.88.14,1.96.47,3.24,1.01,1.29.53,2.3,1.5,3.05,2.88.74,1.39,1.14,3.2,1.21,5.44.21,5.37-.84,9.28-3.14,11.74-2.3,2.46-4.93,3.65-7.91,3.56l-.3-24.83Z"/>
    <path class="cls-2" d="M367.06,232.73c-.67-4.57-1.39-9.07-2.15-13.51-7-40.86-16.08-68.54-27.73-84.61l-3.05-4.2-52.5-.59-2.96,2.56c-14.98,12.94-26.27,40.59-34.5,84.51-2.55,13.58-4.7,27.1-6.43,40.51h0c-1.56,11.98-2.79,23.86-3.69,35.62v.05c-.35,4.53-.65,9.05-.9,13.55,0,.02-.01.03-.01.05-.51,9.23-.82,18.38-.92,27.43-.02,1.5-.03,2.99-.04,4.48l-.04,10.37h61.31l.36-9.96c1.18-32.83,1.84-50.03,2.2-58.91l10.5-.42c1.86,35.86,2.73,59.84,2.58,71.37l-.13,10.45h65.28l.1-10.22c.43-42.82-2.01-82.63-7.28-118.53ZM298.42,225.47c1.66-9.17,3.02-14.86,4.08-17.06.35.92.69,2.14,1.02,3.67.33,1.53.58,2.92.76,4.17.18,1.26.39,2.88.64,4.86.25,1.99.43,3.38.53,4.17l-7.03.19Z"/>
    <polygon class="cls-2" points="367.21 369.68 366.95 129.86 428.76 129.86 456.3 195.66 455.57 129.86 521.18 129.86 521.18 350.87 458.24 350.87 432.89 296.8 434.63 369.68 367.21 369.68"/>
    <path class="cls-2" d="M655.24,229.04c-.01-16.39-1.76-31.05-5.19-43.6-.7-2.54-1.45-5-2.26-7.35-3.31-9.71-7.51-17.8-12.53-24.09-6.28-7.87-13.46-13.91-21.33-17.94-8.02-4.11-16.81-6.19-26.13-6.2h-.68c-13.07,0-24.56,2.46-34.17,7.32-9.94,5.02-17.96,12.62-23.86,22.59-3.08,5.21-5.72,11.15-7.91,17.84-5.6,17.06-8.35,39.03-8.35,66.5,0,6.57.12,12.45.37,17.5.26,5.16.85,11.5,1.76,18.84.94,7.65,2.26,14.5,3.92,20.36.65,2.3,1.42,4.64,2.3,7.03,1.4,3.79,3.07,7.67,5.01,11.6,3.43,6.95,7.69,12.85,12.67,17.54,4.98,4.68,11.23,8.63,18.61,11.75,7.45,3.15,15.82,4.85,24.91,5.04.51.01,1.01.01,1.52.01,8.62,0,16.65-1.53,23.88-4.55,7.69-3.21,14.25-7.7,19.5-13.34,4.94-5.32,9.29-11.85,12.95-19.43,3.48-7.21,6.21-14.55,8.14-21.82,0-.01.01-.02.01-.03,1.87-7.06,3.38-14.92,4.48-23.37,1.07-8.25,1.78-15.69,2.12-22.14.33-6.36.42-13.11.26-20.06ZM586.05,288.49c-1.3,0-2.45-.18-3.47-.54-1.02-.36-1.87-1.08-2.57-2.16-.69-1.08-1.29-2.09-1.8-3.06-.51-.95-.92-2.42-1.25-4.4-.32-1.98-.58-3.65-.76-5.03-.19-1.38-.32-3.39-.42-6.02-.09-2.64-.13-4.74-.13-6.29v-14.02c0-13.55,1.15-24.12,3.46-31.73,2.31-7.61,5.46-11.41,9.43-11.41,1.39,0,2.59.57,3.61,1.7,1.01,1.14,1.82,2.88,2.42,5.22.6,2.33,1.09,4.61,1.46,6.83.37,2.22.63,5.06.76,8.54.14,3.47.21,6.17.21,8.08v8.99c0,29.96-3.65,45.06-10.95,45.3Z"/>
    <path class="cls-2" d="M735.13,359.8v-10.32c0-13.33-4.88-27.63-14.5-42.49-4.24-6.55-8.45-11.7-12.43-15.29l1.3,52.68h-60.88l-1.07-214.26h68.61l-4.21,12.55c-.12,1.62-.37,6.19-.91,19.06-.55,13.18-1.12,28.24-1.68,44.77-.13,3.71-.24,7.16-.33,10.35,1.74-2.35,3.37-4.87,4.87-7.55,5.79-10.33,9.83-21.19,12.02-32.27,2.25-11.41,3.24-23.64,2.94-36.33l-.25-10.63,63.57.36v10.27c0,11.74-1.29,23.92-3.83,36.21-2.53,12.25-6.35,24.42-11.34,36.18-5.24,12.35-12.63,23.34-21.97,32.68-3.06,3.06-6.27,5.81-9.61,8.25,4.59,2.76,9.24,6.23,13.88,10.37,6.56,5.85,12.51,12.7,17.71,20.35,5.33,7.86,9.68,17.56,12.95,28.85,3.24,11.21,4.8,23.34,4.63,36.04l-.14,10.18h-59.33Z"/>
    <polygon class="cls-2" points="774.13 195.4 793.96 146.74 841.43 146.74 806.7 203.97 774.13 195.4"/>
    <path class="cls-2" d="M943.91,253.87c-4.27-8.35-9.76-15.53-16.33-21.35-5.86-5.18-12.22-10.32-18.9-15.27-6.71-4.97-13.14-9.33-19.13-12.96-5-3.03-9.16-6.15-12.35-9.28-2.1-2.04-2.67-3.24-2.8-3.58.03-2.19.47-3.74,1.32-4.6.77-.77,3.37-2.57,11.02-2.57.33,0,.66,0,1,.01h.2c.67,0,4.52.29,15.45,6.04,8.79,4.63,15.27,8.31,19.25,10.93,4.18,2.77,7.62,5.1,10.23,6.94l16.05,11.32.77-69.21-12.35-6.82c-5.6-3.16-13.24-6.07-23.36-8.89-10.12-2.81-20.25-4.23-30.13-4.23-21.14,0-37.69,4.7-49.17,13.99-.96.78-1.89,1.57-2.78,2.4-3.96,3.61-7.22,7.59-9.77,11.92-4.01,6.8-6.25,14.47-6.7,22.93v.07c-.13,2.64-.11,5.25.05,7.84h0c.31,5.29,1.19,10.45,2.63,15.41,2.11,7.24,4.9,13.64,8.3,19.03,3.3,5.22,7.51,10.4,12.52,15.41,2.04,2.04,4.03,3.94,5.95,5.69l-28.38,2.68-.12,9.28c-.17,13.15.17,24.61,1,34.06.86,9.83,2.54,18.92,4.98,27.03,2.68,8.89,6.58,16.25,11.59,21.86,5.08,5.7,11.51,10.1,19.1,13.1,7.22,2.85,15.82,4.39,25.54,4.57h.06c.86.02,1.72.02,2.57.02,12.03,0,21.81-1.12,29.92-3.42,9.53-2.71,17.44-7.57,23.49-14.45,5.85-6.64,9.99-14.95,12.3-24.68,2.13-8.93,3.24-19.94,3.42-33.68.18-9.55-1.98-18.82-6.44-27.54ZM871.85,266.62c.03-.45.05-.87.07-1.28,4.07,3.5,7.46,7.41,10.14,11.68,5.43,8.91,6.99,16.48,4.77,23.14l-.05.16c-1.49,4.73-3.46,5.56-7.03,5.56h-.49c-.3,0-.54,0-1.13-.6-1.37-1.36-2.41-3.03-3.18-5.11-1.01-2.71-1.79-6.13-2.33-10.17-.59-4.42-.93-8.41-1-11.88-.07-3.54,0-7.41.23-11.5Z"/>
  </g>
  <g>
    <path class="cls-1" d="M234.05,293.07v-.05c-.37-31.21-11.95-50.26-34.71-57.11,6.91-.48,13.87-5.22,20.86-14.23,6.99-9,10.25-21.05,9.77-36.16-.49-13.66-6.68-24.75-18.57-33.28-11.9-8.51-28.21-12.61-48.95-12.29h-32.3l.24,203.25,33.27.24h3.86c5.94,0,10.81-.12,14.59-.36,3.77-.24,8.59-.76,14.46-1.57,5.87-.8,10.69-2.21,14.47-4.21,3.77-2.02,7.55-4.67,11.33-7.96,3.78-3.3,6.63-7.8,8.56-13.5.96-2.83,1.7-5.88,2.21-9.17,0-.02.01-.03.01-.05.52-3.33.83-6.89.91-10.68.01-.97.01-1.93-.01-2.87ZM190.66,288.95c-.96,15.76-9,23.47-24.11,23.15l.49-55.94c9,0,15.26,2.54,18.8,7.6,3.54,5.06,5.14,13.46,4.82,25.19ZM184.64,210.23c-5.47,4.42-11.74,6.55-18.81,6.39l-.72-44.6h1.44c3.06,0,5.63.12,7.72.36,2.09.24,4.66.84,7.71,1.8,3.06.97,5.47,2.7,7.24,5.19,1.76,2.49,2.73,5.75,2.89,9.76.48,9.65-2.01,16.68-7.47,21.1Z"/>
    <path class="cls-1" d="M354.74,220.96c-6.67-38.9-15.31-65.66-25.92-80.29l-43.4-.48c-13.02,11.25-23.39,37.45-31.11,78.6-4.73,25.23-8.04,49.99-9.93,74.31h0c-.38,4.89-.7,9.76-.96,14.6v.03c-.57,10.39-.88,20.68-.92,30.89h40.99c1.61-44.52,2.49-67.35,2.65-68.47l30.14-1.21c2.25,41.95,3.3,69.36,3.13,82.22h44.61c.48-47.9-2.61-91.3-9.28-130.2ZM290.72,232.53c5.31-24.11,9.65-39.05,13.02-44.84,1.13,2.41,2.21,5.62,3.26,9.64,1.04,4.02,1.84,7.68,2.41,10.97.56,3.3,1.24,7.56,2.05,12.78.8,5.23,1.36,8.88,1.69,10.97l-22.43.48Z"/>
    <path class="cls-1" d="M466.01,140.19l1.21,108.26-45.33-108.26h-44.61l.24,219.17h46.54l-2.66-111.4,43.4,92.59h46.06v-200.36h-44.85Z"/>
    <path class="cls-1" d="M644.91,229.16c0-15.59-1.6-29.26-4.82-40.99-3.22-11.73-7.52-20.98-12.9-27.73-5.39-6.75-11.37-11.81-17.96-15.19-6.59-3.37-13.74-5.06-21.46-5.06-23.31-.16-39.91,8.12-49.79,24.83-9.89,16.72-14.83,43.08-14.83,79.09,0,6.43.12,12.09.37,16.99.24,4.91.8,10.94,1.68,18.09.88,7.15,2.09,13.42,3.62,18.8,1.52,5.39,3.73,11.02,6.63,16.88,2.89,5.87,6.39,10.73,10.49,14.59s9.28,7.11,15.55,9.76c6.27,2.66,13.3,4.06,21.1,4.22,7.79.16,14.86-1.08,21.21-3.73,6.35-2.65,11.66-6.27,15.92-10.85,4.25-4.58,7.99-10.21,11.21-16.88,3.21-6.67,5.7-13.34,7.47-20.01,1.77-6.67,3.18-14.02,4.22-22.06,1.05-8.04,1.73-15.15,2.05-21.34s.4-12.66.24-19.41ZM604.89,242.18c0,40.19-6.35,60.44-19.05,60.76-2.25,0-4.26-.24-6.03-.72-1.77-.49-3.25-1.45-4.46-2.9-1.2-1.45-2.25-2.81-3.13-4.1-.89-1.28-1.61-3.25-2.17-5.91-.57-2.65-1.01-4.9-1.33-6.75-.32-1.84-.56-4.54-.72-8.07-.16-3.54-.24-6.35-.24-8.44v-18.81c0-18.16,2.01-32.35,6.03-42.55,4.01-10.21,9.48-15.32,16.39-15.32,2.41,0,4.5.77,6.27,2.3,1.77,1.52,3.17,3.85,4.22,6.99,1.04,3.13,1.89,6.19,2.53,9.16.64,2.98,1.09,6.79,1.33,11.45.24,4.67.36,8.28.36,10.85v12.06Z"/>
    <path class="cls-1" d="M780.05,316.44c-2.97-10.28-6.83-18.93-11.57-25.92s-10.09-13.14-16.04-18.44c-5.94-5.31-11.73-9.29-17.36-11.94-5.62-2.65-10.93-4.22-15.91-4.7,10.61-2.89,20.13-8.56,28.57-17s15.03-18.24,19.77-29.41,8.32-22.59,10.73-34.24c2.41-11.65,3.62-23.03,3.62-34.12l-42.68-.24c.32,13.5-.72,26.36-3.13,38.58-2.41,12.21-6.79,23.99-13.14,35.32-6.35,11.33-14.51,20.05-24.47,26.16-.17-6.43.03-17.88.6-34.36.56-16.47,1.12-31.42,1.69-44.84.56-13.42.92-20.38,1.08-20.86h-43.88l.96,193.61h40.03l-1.45-58.59c10.45.65,21.06,9.28,31.83,25.92,10.77,16.64,16.15,32.67,16.15,48.1h38.82c.16-11.73-1.25-22.75-4.22-33.03Z"/>
    <path class="cls-1" d="M800.9,157.07l-12.77,31.34,13.74,3.62,20.26-33.37.96-1.59h-22.19Z"/>
    <path class="cls-1" d="M934.72,258.57c-3.7-7.23-8.36-13.34-13.98-18.32-5.63-4.98-11.7-9.89-18.21-14.71-6.51-4.82-12.62-8.96-18.32-12.42-5.71-3.45-10.45-7.03-14.23-10.73-3.78-3.69-5.75-7.15-5.91-10.36-.16-12.38,7.8-18.41,23.87-18.09,4.34,0,11.1,2.41,20.26,7.24,9.16,4.82,15.87,8.64,20.13,11.45s7.75,5.18,10.49,7.11l.48-43.4-6.99-3.85c-4.82-2.74-11.86-5.39-21.1-7.96-9.24-2.57-18.36-3.86-27.36-3.86-18.81,0-33.04,3.9-42.68,11.69-9.65,7.8-14.79,17.73-15.43,29.78-.32,6.91.44,13.55,2.29,19.89,1.84,6.35,4.22,11.82,7.11,16.4,2.89,4.58,6.59,9.12,11.09,13.62s8.6,8.16,12.3,10.97c3.69,2.82,7.87,5.75,12.54,8.8,8.35,5.47,14.95,12.06,19.77,19.77,7.07,11.58,9,22.19,5.78,31.83-2.73,8.68-8.52,12.94-17.36,12.78-3.21,0-6.02-1.21-8.43-3.62-2.42-2.41-4.27-5.34-5.55-8.8-1.29-3.45-2.25-7.59-2.89-12.42-.65-4.82-1.01-9.16-1.09-13.02-.08-3.85,0-7.95.24-12.29.24-4.34.44-7.27.61-8.8.15-1.53.24-2.69.24-3.5l-35.69,3.38c-.16,12.86.16,23.87.97,33.03.8,9.16,2.33,17.48,4.58,24.95,2.25,7.48,5.38,13.46,9.4,17.97,4.02,4.49,9.08,7.95,15.19,10.36,6.11,2.42,13.42,3.7,21.94,3.86,12.06.16,21.9-.84,29.54-3.01,7.63-2.17,13.82-5.95,18.56-11.33,4.74-5.39,8.08-12.14,10.01-20.26,1.93-8.11,2.97-18.6,3.13-31.46.16-7.88-1.6-15.43-5.3-22.67Z"/>
  </g>
</svg>