<?xml version="1.0" encoding="UTF-8"?>
<svg id="svg9" xmlns="http://www.w3.org/2000/svg" viewBox="0 0 666.67 666.67">
  <defs>
    <style>
      .cls-1 {
        fill: none;
      }

      .cls-2 {
        fill: #4285f4;
      }

      .cls-3 {
        fill: #fbbc05;
      }

      .cls-4 {
        fill: #34a853;
      }

      .cls-5 {
        fill: #eb4335;
      }
    </style>
  </defs>
  <rect class="cls-1" x="75.12" y="-148.33" width="933.33" height="933.33"/>
  <g>
    <path class="cls-2" d="M666.67,340.76c0-27.42-2.27-47.42-7.15-68.18h-319.39v123.73h187.45c-3.76,30.73-24.15,77.03-69.52,108.15l-.64,4.12,100.97,76.67,6.97.67c64.3-58.12,101.3-143.7,101.3-245.15Z"/>
    <path class="cls-4" d="M340.15,666.67c91.82,0,168.91-29.64,225.24-80.76l-107.33-81.45c-28.73,19.64-67.27,33.33-117.91,33.33-87.51,0-165.32-55.7-193.52-138.55l-4,.33-105,79.64-1.36,3.76c55.94,108.88,170.85,183.7,303.88,183.7Z"/>
    <path class="cls-3" d="M146.67,399.24c-7.45-21.18-11.31-43.46-11.42-65.91,0-22.97,4.18-45.18,10.94-65.91l-.18-4.45-106.3-80.91-3.48,1.64C12.45,230,.04,281.29,0,333.33,0,387.03,13.21,437.79,36.27,482.97l110.36-83.73h.03Z"/>
    <path class="cls-5" d="M340.15,128.88c63.88,0,106.94,27.03,131.52,49.64l95.97-91.85C508.7,32.97,431.97,0,340.15,0,207.09,0,92.21,74.82,36.27,183.7l110,83.73c28.43-82.83,106.31-138.48,193.88-138.55Z"/>
  </g>
</svg>