<?xml version="1.0" encoding="UTF-8"?>
<svg id="svg9" xmlns="http://www.w3.org/2000/svg" viewBox="0 0 666.67 666.67">
  <g id="xiVV5v.tif">
    <g fill="currentColor" stroke="currentColor" stroke-width="32" stroke-linejoin="round">
      <path d="M568.64,376.85c34.52,51.56,44.5,125.46,41.67,186.57-2.52,54.5-45.49,101.86-103.15,101.89l-346.59.14c-57.16.02-100.86-45.86-104.03-100.21-3.53-60.75,6.9-135.78,40.7-187.27,24.19-36.85,66.57-59.48,111.55-53.69,10.44,1.34,22.47,11.56,31.27,17.39,118.95,78.71,191.24-12.93,216.28-16.93,44.68-7.14,87.85,15.6,112.3,52.12ZM466.73,362.04c-14.41,9.04-27.38,17.94-41.87,26.03-57.52,32.1-124.17,32.3-181.86.63-14.77-8.11-27.97-17.17-42.65-26.46-93.33-3.33-109.12,134.92-104.6,202.56,2.28,34.17,31.15,62.12,67.28,62.1l341.67-.12c36.59-.01,64.79-29.46,66.47-63.7,3.37-68.31-11.29-202.75-104.44-201.04Z"/>
      <path d="M489.53,161.52c0,88.53-71.81,160.3-160.38,160.3s-160.38-71.77-160.38-160.3S240.58,1.22,329.15,1.22s160.38,71.77,160.38,160.3ZM450.57,161.53c0-67.02-54.36-121.36-121.42-121.36s-121.42,54.33-121.42,121.36,54.36,121.36,121.42,121.36,121.42-54.33,121.42-121.36Z"/>
    </g>
  </g>
</svg>
