<?xml version="1.0" encoding="UTF-8"?>
<svg id="Layer_1" data-name="Layer 1" xmlns="http://www.w3.org/2000/svg" viewBox="0 0 360 360">
  <defs>
    <style>
      .cls-1 {
        fill: #fff;
      }
    </style>
  </defs>
  <g id="_8znKqc.tif" data-name="8znKqc.tif">
    <g>
      <path class="cls-1" d="M113,78.81c-9.38,0-14.22-8.14-14.11-14.64.13-7.83,5.92-14.13,14.54-14.13l208.21-.09c22.57,0,42.84,19.6,37.5,42.91l-29.01,126.66c-3.6,15.73-17.35,28.58-34.03,28.58l-182.75-.04c-15.84,0-29.84-12.67-33.3-27.78L42.01,54.38,7.91,38.21C.52,34.71-1.92,25.74,1.56,19.08c3.54-6.79,11.55-10.01,19.06-6.5l30.15,14.08c9.92,4.64,17.4,13.32,19.94,24.41l36.92,161.6c.88,3.85,4.51,7.15,8.68,7.15l176.97.02c3.94,0,8.12-2.95,8.98-6.66l28.78-124.3c1.18-5.09-2.73-10-8.07-10l-209.97-.06Z"/>
      <path class="cls-1" d="M178.24,312.54c0,20.06-16.22,36.33-36.23,36.33s-36.23-16.27-36.23-36.33,16.22-36.33,36.23-36.33,36.23,16.27,36.23,36.33ZM155.25,312.53c0-7.34-5.94-13.3-13.26-13.3s-13.26,5.95-13.26,13.3,5.94,13.3,13.26,13.3,13.26-5.95,13.26-13.3Z"/>
      <path class="cls-1" d="M303.8,312.55c0,20.06-16.22,36.33-36.22,36.33s-36.22-16.26-36.22-36.33,16.22-36.33,36.22-36.33,36.22,16.26,36.22,36.33ZM280.85,312.52c0-7.34-5.93-13.29-13.25-13.29s-13.25,5.95-13.25,13.29,5.93,13.29,13.25,13.29,13.25-5.95,13.25-13.29Z"/>
    </g>
  </g>
</svg>