<?xml version="1.0" encoding="UTF-8"?>
<svg id="svg9" xmlns="http://www.w3.org/2000/svg" viewBox="0 0 666.67 666.67">
  <defs>
    <style>
      .cls-1 {
        fill: #e60913;
      }

      .cls-2 {
        fill: #202020;
      }
    </style>
  </defs>
  <g id="ZKJttf.tif">
    <g>
      <path class="cls-2" d="M495.79,601.79l-3.64-10.59c-.62-1.81-6.53.73-8.79.74l-188.37.26c-4.07,38.01-33.88,64.66-69.63,64.87-36.01.22-66.74-26.37-70.35-64.45-30.31.03-49.42-24.98-46.12-55.39,3.75-34.54,19.31-66.44,37.51-95.02l165.89.07c-6.11,23.3-3.16,46.51,16.61,61.89l8.56-141.47c.31-5.06-6.02-11.42-10.43-11.9l-52.17-5.66c-19.47-2.11-33.4-19.6-29.19-39.68l31.39-149.56c4.4-20.98,24.93-32.98,43.98-30.37,21.66,2.96,34.22,20.49,34.79,44.14,6.41,11.23,21.83,23.11,34.64,29.74,70.44,36.48,67.68,19.05,137.15,24.23,23.05,1.72,30.82,23.33,29.61,43.76-.67,11.34-1.31,22.39-7.91,30.73-6.59,8.33-18.04,11.17-29.71,12.03l-16.76,1.24c11.94,119.97,84.86,81.14,70.35,167.4,48.41-1.25,85.2,30.43,93.36,76.07,1.36,7.63-2.11,14.13-8.28,19.3,8.42,39.13-14.64,77.27-53.42,85.66-37.85,8.19-75.51-15.84-83.87-55.74-4.17,3.17-8.66,6.47-11.92,7.85-4.09,1.73-11.96-6.32-13.28-10.18ZM412.94,339.79l-18.54,175.84,42.39.04.04-238.46c-35.49-4.93-67.4-17.18-96.54-39.51l-8.41,31.64c-1.06,6.22,1.76,13.57,7.69,15.78l52.32,19.54c13.76,5.14,22.8,18.44,21.04,35.12ZM628.95,566.36c-28.2-8.25-65.68.31-85.35,18.2-7.37,21.43,10.77,43.16,26.15,49.95,21.3,9.41,42.65,3.33,56.27-11.71,12.59-13.91,19.18-42.82,2.93-56.45ZM271.7,592.12l-94.57.03c3.01,27.13,25.31,44.3,50.55,43.07,22.07-1.07,43.95-19.09,44.02-43.1Z"/>
      <path class="cls-1" d="M187.43,343.94l-154.5-.07c-18.09,0-32.74-14.61-32.74-32.67v-120.36c0-17.92,14.71-32.67,32.73-32.67h153.12c18.04,0,32.73,14.73,32.73,32.68v120.28c0,17.44-12.99,31.26-31.34,32.81Z"/>
      <path class="cls-2" d="M316.58,420.35l-177.18.09c-13.34-9.07-30.36-56.36-7.95-56.35h174.7c5.41.01,10.83,7.28,10.79,11.96l-.36,44.3Z"/>
      <ellipse class="cls-2" cx="350" cy="59.79" rx="54.6" ry="54.58"/>
    </g>
  </g>
</svg>