<?xml version="1.0" encoding="UTF-8"?>
<svg id="Layer_1" data-name="Layer 1" xmlns="http://www.w3.org/2000/svg" viewBox="0 0 360 360">
  <defs>
    <style>
      .cls-1 {
        fill: #fff;
      }
    </style>
  </defs>
  <g id="ECg2Ws.tif">
    <g>
      <path class="cls-1" d="M260.84,318.12c-71.92,40.98-161.59,21.69-210.61-42.87C.94,210.33,7.39,118.67,65.11,61.27,122.88,3.82,214.51-2.12,279.2,47.55c64.48,49.51,82.69,139.14,42.1,210.3l20.85,64.59c1.48,4.6.21,9.9-2.71,13.07-2.85,3.09-8.12,5.16-13.3,3.5l-65.3-20.88ZM310.05,306.83l-15.06-47.01c-1.03-3.22.03-7.65,1.47-10.63,37.2-59.97,22.93-136.65-31.29-179.84-54.39-43.33-132.51-38.8-181.79,10.16-49.25,48.93-54.35,127.03-11.37,181.72,43.04,54.78,120.11,69.37,180.42,32.02,2.73-1.69,7.55-2.47,11.08-1.33l46.54,14.92Z"/>
      <circle class="cls-1" cx="243.58" cy="176.77" r="15.94"/>
      <circle class="cls-1" cx="180" cy="176.77" r="15.94"/>
      <circle class="cls-1" cx="116.42" cy="176.77" r="15.94"/>
    </g>
  </g>
</svg>