<?xml version="1.0" encoding="UTF-8"?>
<svg id="Layer_1" data-name="Layer 1" xmlns="http://www.w3.org/2000/svg" viewBox="0 0 1080 311.84">
  <defs>
    <style>
      .cls-1 {
        fill: #fff;
      }

      .cls-2 {
        fill: #0a0a0a;
      }
    </style>
  </defs>
  <g>
    <path class="cls-2" d="M161.98,212.27h0c-.2-18.02-3.08-33.57-8.63-46.42h0c-1.25-2.91-2.63-5.64-4.14-8.26-4.55-7.87-10.27-14.51-17.11-19.91,3.07-2.89,6.09-6.25,9.04-10.05,11.03-14.19,16.24-32.92,15.51-55.69v-.05c-.39-10.99-3.15-21.14-8.19-30.21-4.98-8.91-12.22-16.81-21.55-23.5C109.75,5.9,86.68-.33,58.36-.33c-1,0-2,0-3,.01H0l.34,291.06,56.58.42h5.12c7.97,0,14.65-.17,19.82-.51,5.27-.33,11.73-1.03,19.79-2.13,9.3-1.27,16.9-3.54,23.29-6.93,5.79-3.08,11.59-7.15,17.26-12.08,1.4-1.22,2.73-2.54,3.98-3.93,4.75-5.29,8.45-11.81,11.04-19.45,1.55-4.58,2.72-9.53,3.52-14.84v-.04c.73-4.72,1.14-9.74,1.25-14.99v-.17c.03-1.27.03-2.55,0-3.81ZM75.08,219.31c-1.26,1.2-2.55,2.25-3.86,3.19l-.59-42.25c1.55.43,3.45,1.04,5.73,1.89,1.98.73,2.81,1.73,3.38,2.67.59.95,1.59,3.34,1.77,8.62v.21c.82,18.87-4.64,23.99-6.44,25.68ZM68.5,66.39h.79c1.66,0,3.07.09,4.21.26,1.14.18,2.55.61,4.21,1.31,1.68.69,2.99,1.95,3.97,3.74.96,1.81,1.48,4.16,1.57,7.07.27,6.98-1.09,12.07-4.08,15.27-2.99,3.2-6.41,4.75-10.29,4.63l-.39-32.29Z"/>
    <path class="cls-2" d="M321.51,133.76c-.87-5.94-1.81-11.79-2.8-17.57-9.1-53.13-20.91-89.13-36.06-110.02l-3.97-5.46L210.42-.06l-3.85,3.33c-19.48,16.83-34.16,52.78-44.86,109.89-3.32,17.66-6.11,35.24-8.36,52.68h0c-2.03,15.58-3.63,31.03-4.8,46.32v.07c-.46,5.89-.85,11.77-1.17,17.62,0,.03-.01.04-.01.07-.66,12-1.07,23.9-1.2,35.67-.03,1.95-.04,3.89-.05,5.83l-.05,13.48h79.72l.47-12.95c1.53-42.69,2.39-65.06,2.86-76.6l13.65-.55c2.42,46.63,3.55,77.81,3.35,92.81l-.17,13.59h84.89l.13-13.29c.56-55.68-2.61-107.45-9.47-154.13ZM232.25,124.32c2.16-11.92,3.93-19.32,5.31-22.18.46,1.2.9,2.78,1.33,4.77.43,1.99.75,3.8.99,5.42.23,1.64.51,3.74.83,6.32.33,2.59.56,4.4.69,5.42l-9.14.25Z"/>
    <polygon class="cls-2" points="321.7 311.84 321.36 0 401.74 0 437.56 85.55 436.6 0 521.92 0 521.92 287.39 440.08 287.39 407.12 217.07 409.37 311.84 321.7 311.84"/>
    <path class="cls-2" d="M696.24,128.96c-.01-21.31-2.29-40.38-6.75-56.69-.91-3.3-1.89-6.5-2.94-9.56-4.3-12.63-9.77-23.15-16.29-31.33-8.17-10.23-17.5-18.09-27.74-23.33C632.1,2.71,620.67,0,608.55,0h-.88c-17,0-31.94,3.2-44.43,9.52-12.93,6.53-23.35,16.41-31.03,29.37-4.01,6.77-7.44,14.5-10.29,23.2-7.28,22.18-10.86,50.75-10.86,86.47,0,8.54.16,16.19.48,22.76.34,6.71,1.11,14.95,2.29,24.5,1.22,9.95,2.94,18.85,5.1,26.47.85,2.99,1.85,6.03,2.99,9.14,1.82,4.93,3.99,9.97,6.51,15.08,4.46,9.04,10,16.71,16.48,22.81,6.48,6.09,14.6,11.22,24.2,15.28,9.69,4.1,20.57,6.31,32.39,6.55.66.01,1.31.01,1.98.01,11.21,0,21.65-1.99,31.05-5.92,10-4.17,18.53-10.01,25.36-17.35,6.42-6.92,12.08-15.41,16.84-25.27,4.53-9.38,8.08-18.92,10.58-28.37,0-.01.01-.03.01-.04,2.43-9.18,4.4-19.4,5.83-30.39,1.39-10.73,2.31-20.4,2.76-28.79.43-8.27.55-17.05.34-26.08ZM606.27,206.27c-1.69,0-3.19-.23-4.51-.7-1.33-.47-2.43-1.4-3.34-2.81-.9-1.4-1.68-2.72-2.34-3.98-.66-1.24-1.2-3.15-1.63-5.72-.42-2.57-.75-4.75-.99-6.54-.25-1.79-.42-4.41-.55-7.83-.12-3.43-.17-6.16-.17-8.18v-18.23c0-17.62,1.5-31.36,4.5-41.26,3-9.9,7.1-14.84,12.26-14.84,1.81,0,3.37.74,4.69,2.21,1.31,1.48,2.37,3.74,3.15,6.79.78,3.03,1.42,5.99,1.9,8.88.48,2.89.82,6.58.99,11.1.18,4.51.27,8.02.27,10.51v11.69c0,38.96-4.75,58.59-14.24,58.91Z"/>
    <path class="cls-2" d="M800.13,298.99v-13.42c0-17.34-6.34-35.93-18.85-55.25-5.51-8.52-10.98-15.22-16.17-19.89l1.69,68.5h-79.16L686.25.31h89.22l-5.48,16.32c-.15,2.1-.49,8.04-1.19,24.79-.72,17.14-1.46,36.72-2.19,58.21-.17,4.82-.31,9.31-.42,13.46,2.26-3.05,4.38-6.33,6.34-9.82,7.52-13.43,12.78-27.55,15.63-41.97,2.93-14.84,4.22-30.74,3.83-47.25l-.33-13.82,82.67.47v13.35c0,15.27-1.68,31.11-4.98,47.08-3.3,15.93-8.25,31.76-14.74,47.04-6.81,16.05-16.43,30.35-28.57,42.5-3.98,3.98-8.15,7.56-12.5,10.73,5.97,3.59,12.01,8.11,18.05,13.49,8.52,7.61,16.27,16.51,23.02,26.47,6.93,10.22,12.59,22.84,16.84,37.51,4.21,14.58,6.24,30.35,6.01,46.87l-.18,13.24h-77.15Z"/>
    <polygon class="cls-2" points="850.84 85.22 876.63 21.95 938.35 21.95 893.19 96.37 850.84 85.22"/>
    <path class="cls-2" d="M1071.61,161.25c-5.55-10.86-12.69-20.19-21.23-27.76-7.62-6.74-15.89-13.42-24.58-19.86-8.73-6.46-17.09-12.13-24.88-16.85-6.5-3.94-11.91-8-16.06-12.07-2.73-2.65-3.47-4.21-3.64-4.66.04-2.85.61-4.86,1.72-5.98,1-1,4.38-3.34,14.33-3.34.43,0,.86,0,1.3.01h.26c.87,0,5.88.38,20.09,7.85,11.43,6.02,19.86,10.81,25.03,14.21,5.44,3.6,9.91,6.63,13.3,9.02l20.87,14.72,1-90-16.06-8.87c-7.28-4.11-17.22-7.89-30.38-11.56-13.16-3.65-26.33-5.5-39.18-5.5-27.49,0-49.01,6.11-63.94,18.19-1.25,1.01-2.46,2.04-3.61,3.12-5.15,4.69-9.39,9.87-12.7,15.5-5.21,8.84-8.13,18.82-8.71,29.82v.09c-.17,3.43-.14,6.83.07,10.19h0c.4,6.88,1.55,13.59,3.42,20.04,2.74,9.41,6.37,17.74,10.79,24.75,4.29,6.79,9.77,13.52,16.28,20.04,2.65,2.65,5.24,5.12,7.74,7.4l-36.9,3.48-.16,12.07c-.22,17.1.22,32,1.3,44.29,1.12,12.78,3.3,24.6,6.48,35.15,3.48,11.56,8.56,21.13,15.07,28.43,6.61,7.41,14.97,13.13,24.84,17.03,9.39,3.71,20.57,5.71,33.21,5.94h.08c1.12.03,2.24.03,3.34.03,15.64,0,28.36-1.46,38.91-4.45,12.39-3.52,22.68-9.84,30.55-18.79,7.61-8.63,12.99-19.44,15.99-32.09,2.77-11.61,4.21-25.93,4.45-43.8.23-12.42-2.57-24.47-8.37-35.81ZM977.91,177.83c.04-.59.07-1.13.09-1.66,5.29,4.55,9.7,9.64,13.19,15.19,7.06,11.59,9.09,21.43,6.2,30.09l-.07.21c-1.94,6.15-4.5,7.23-9.14,7.23h-.64c-.39,0-.7,0-1.47-.78-1.78-1.77-3.13-3.94-4.14-6.64-1.31-3.52-2.33-7.97-3.03-13.22-.77-5.75-1.21-10.94-1.3-15.45-.09-4.6,0-9.64.3-14.95Z"/>
  </g>
  <g>
    <path class="cls-1" d="M148.55,212.22v-.07c-.48-40.58-15.54-65.36-45.13-74.26,8.99-.62,18.04-6.79,27.13-18.5,9.09-11.7,13.33-27.37,12.7-47.02-.64-17.76-8.69-32.18-24.15-43.28-15.47-11.07-36.68-16.4-63.65-15.98H13.45l.31,264.29,43.26.31h5.02c7.72,0,14.06-.16,18.97-.47,4.9-.31,11.17-.99,18.8-2.04,7.63-1.04,13.9-2.87,18.82-5.47,4.9-2.63,9.82-6.07,14.73-10.35,4.92-4.29,8.62-10.14,11.13-17.55,1.25-3.68,2.21-7.65,2.87-11.92,0-.03.01-.04.01-.07.68-4.33,1.08-8.96,1.18-13.89.01-1.26.01-2.51-.01-3.73ZM92.13,206.87c-1.25,20.49-11.7,30.52-31.35,30.1l.64-72.74c11.7,0,19.84,3.3,24.45,9.88,4.6,6.58,6.68,17.5,6.27,32.76ZM84.3,104.5c-7.11,5.75-15.27,8.52-24.46,8.31l-.94-58h1.87c3.98,0,7.32.16,10.04.47,2.72.31,6.06,1.09,10.03,2.34,3.98,1.26,7.11,3.51,9.41,6.75,2.29,3.24,3.55,7.48,3.76,12.69.62,12.55-2.61,21.69-9.71,27.44Z"/>
    <path class="cls-1" d="M305.49,118.46c-8.67-50.58-19.91-85.38-33.7-104.4l-56.43-.62c-16.93,14.63-30.41,48.7-40.45,102.21-6.15,32.81-10.45,65-12.91,96.63h0c-.49,6.36-.91,12.69-1.25,18.98v.04c-.74,13.51-1.14,26.89-1.2,40.17h53.3c2.09-57.89,3.24-87.58,3.45-89.03l39.19-1.57c2.93,54.55,4.29,90.19,4.07,106.91h58.01c.62-62.29-3.39-118.72-12.07-169.3ZM222.24,133.5c6.9-31.35,12.55-50.78,16.93-58.31,1.47,3.13,2.87,7.31,4.24,12.54,1.35,5.23,2.39,9.99,3.13,14.26.73,4.29,1.61,9.83,2.67,16.62,1.04,6.8,1.77,11.55,2.2,14.26l-29.17.62Z"/>
    <path class="cls-1" d="M450.18,13.43l1.57,140.78L392.81,13.43h-58.01l.31,285h60.52l-3.46-144.86,56.43,120.4h59.89V13.43h-58.32Z"/>
    <path class="cls-1" d="M682.81,129.12c0-20.27-2.08-38.05-6.27-53.3-4.19-15.25-9.78-27.28-16.77-36.06-7.01-8.78-14.78-15.36-23.35-19.75-8.57-4.38-17.87-6.58-27.91-6.58-30.31-.21-51.9,10.56-64.74,32.29-12.86,21.74-19.28,56.02-19.28,102.84,0,8.36.16,15.72.48,22.09.31,6.38,1.04,14.23,2.18,23.52,1.14,9.3,2.72,17.45,4.71,24.45,1.98,7.01,4.85,14.33,8.62,21.95,3.76,7.63,8.31,13.95,13.64,18.97s12.07,9.25,20.22,12.69c8.15,3.46,17.29,5.28,27.44,5.49,10.13.21,19.32-1.4,27.58-4.85,8.26-3.45,15.16-8.15,20.7-14.11,5.53-5.96,10.39-13.28,14.58-21.95,4.17-8.67,7.41-17.35,9.71-26.02,2.3-8.67,4.14-18.23,5.49-28.69,1.37-10.45,2.25-19.7,2.67-27.75s.52-16.46.31-25.24ZM630.77,146.05c0,52.26-8.26,78.59-24.77,79.01-2.93,0-5.54-.31-7.84-.94-2.3-.64-4.23-1.89-5.8-3.77-1.56-1.89-2.93-3.65-4.07-5.33-1.16-1.66-2.09-4.23-2.82-7.69-.74-3.45-1.31-6.37-1.73-8.78-.42-2.39-.73-5.9-.94-10.49-.21-4.6-.31-8.26-.31-10.97v-24.46c0-23.61,2.61-42.07,7.84-55.33,5.21-13.28,12.33-19.92,21.31-19.92,3.13,0,5.85,1,8.15,2.99,2.3,1.98,4.12,5.01,5.49,9.09,1.35,4.07,2.46,8.05,3.29,11.91.83,3.88,1.42,8.83,1.73,14.89.31,6.07.47,10.77.47,14.11v15.68Z"/>
    <path class="cls-1" d="M858.54,242.61c-3.86-13.37-8.88-24.62-15.04-33.7-6.16-9.09-13.12-17.09-20.86-23.98-7.72-6.9-15.25-12.08-22.57-15.53-7.31-3.45-14.21-5.49-20.69-6.11,13.8-3.76,26.18-11.13,37.15-22.11s19.54-23.72,25.71-38.24,10.82-29.37,13.95-44.52c3.13-15.15,4.71-29.95,4.71-44.37l-55.5-.31c.42,17.55-.94,34.28-4.07,50.17-3.13,15.88-8.83,31.2-17.09,45.93-8.26,14.73-18.87,26.07-31.82,34.02-.22-8.36.04-23.25.78-44.68.73-21.42,1.46-40.86,2.2-58.31.73-17.45,1.2-26.5,1.4-27.13h-57.06l1.25,251.76h52.05l-1.89-76.19c13.59.85,27.39,12.07,41.39,33.7,14,21.64,21,42.48,21,62.55h50.48c.21-15.25-1.63-29.58-5.49-42.95Z"/>
    <path class="cls-1" d="M885.65,35.38l-16.61,40.75,17.87,4.71,26.34-43.39,1.25-2.07h-28.85Z"/>
    <path class="cls-1" d="M1059.66,167.36c-4.81-9.4-10.87-17.35-18.18-23.82-7.32-6.48-15.21-12.86-23.68-19.13-8.47-6.27-16.41-11.65-23.82-16.15-7.42-4.49-13.59-9.14-18.5-13.95-4.92-4.8-7.48-9.3-7.68-13.47-.21-16.1,10.14-23.94,31.04-23.52,5.64,0,14.43,3.13,26.34,9.41,11.91,6.27,20.64,11.23,26.18,14.89s10.08,6.74,13.64,9.25l.62-56.43-9.09-5.01c-6.27-3.56-15.42-7.01-27.44-10.35-12.02-3.34-23.87-5.02-35.58-5.02-24.46,0-42.96,5.07-55.5,15.2-12.55,10.14-19.23,23.06-20.06,38.72-.42,8.99.57,17.62,2.98,25.86,2.39,8.26,5.49,15.37,9.25,21.33,3.76,5.96,8.57,11.86,14.42,17.71s11.18,10.61,15.99,14.26c4.8,3.67,10.23,7.48,16.31,11.44,10.86,7.11,19.44,15.68,25.71,25.71,9.19,15.06,11.7,28.85,7.52,41.39-3.55,11.29-11.08,16.83-22.57,16.62-4.17,0-7.83-1.57-10.96-4.71-3.15-3.13-5.55-6.94-7.22-11.44-1.68-4.49-2.93-9.87-3.76-16.15-.85-6.27-1.31-11.91-1.42-16.93-.1-5.01,0-10.34.31-15.98.31-5.64.57-9.45.79-11.44.2-1.99.31-3.5.31-4.55l-46.41,4.4c-.21,16.72.21,31.04,1.26,42.95,1.04,11.91,3.03,22.73,5.96,32.44,2.93,9.73,7,17.5,12.22,23.37,5.23,5.84,11.81,10.34,19.75,13.47,7.95,3.15,17.45,4.81,28.53,5.02,15.68.21,28.48-1.09,38.41-3.91,9.92-2.82,17.97-7.74,24.13-14.73,6.16-7.01,10.51-15.79,13.02-26.34,2.51-10.55,3.86-24.19,4.07-40.91.21-10.25-2.08-20.06-6.89-29.48Z"/>
  </g>
</svg>