<?xml version="1.0" encoding="UTF-8"?>
<svg id="svg9" xmlns="http://www.w3.org/2000/svg" viewBox="0 0 666.67 666.67">
  <defs>
    <style>
      .cls-1 {
        fill: #fff;
      }
    </style>
  </defs>
  <path class="cls-1" d="M240.88,665.45c-65.91,0-127.28-25.63-172.84-72.18C23.2,547.48-.73,486.93.65,422.76c1.38-64.62,30.75-122.05,82.7-161.74,73.21-55.89,143.34-64.32,232.12-74.97l26.54-3.13c42.38-4.85,44.03-5.04,66.23-28.21,6.5-6.8,15.08-15.76,27.74-27.72l3.66-3.45-2.44-4.43c-16.03-28.93-13.49-63.35,6.65-89.82C462.24,5.2,488.79.14,507.85.14c7.07,0,14.49.68,22.05,2.01,23.97,4.24,34.1,22.24,44.79,41.28,5.46,9.76,11.12,19.84,18.76,27.77,7.75,8.07,18.51,13.66,28.89,19.06,18.36,9.53,35.71,18.55,40.49,40.3,5.85,26.49,6.65,63.24-22.81,87.96-15.42,12.92-33.7,19.76-52.86,19.76-13.55,0-26.85-3.41-39.54-10.12l-4.38-2.31-3.41,3.6c-11.86,12.62-20.52,21.01-26.92,27.21-19.36,18.76-20.01,20.16-23.32,49.92-.85,7.56-1.91,17.15-3.6,29.67l-2.12,15.74c-10.84,80.86-20.2,150.69-66.5,219.41-40.11,59.58-101.47,92.95-172.71,94.03l-3.79.02ZM411.17,208.56c-24.08,8.2-46.74,13.02-73.43,15.67-84.1,8.37-161.85,16.1-230.45,68.92-42.1,32.4-65.12,77.15-66.59,129.4-1.48,53.39,18.21,103.9,55.45,142.26,38.1,39.24,89.5,60.91,144.71,60.99,126.67,0,172.06-115.74,187.86-184.72,8.01-34.94,11.78-66.14,15.44-96.32,3.37-27.72,6.84-56.38,13.6-88.36l.51-2.39-1.23-2.16c-10.67-18.79-29.57-34.58-39.88-42.34l-2.73-2.05-3.26,1.1ZM443.2,176.68l46.49,46.51,53.92-53.6,14.23,15.46c7.79,8.47,18.26,13.13,29.44,13.13,6.8,0,13.53-1.8,19.53-5.21,15.8-9.06,23.4-27.64,18.47-45.2-4.79-16.96-20.54-28.61-39.22-28.97-21.88-.42-39.05-17.54-39.96-39.79-.74-18.64-13.32-34.44-30.58-38.4-3.05-.72-6.16-1.08-9.23-1.08-14,0-26.98,7.37-33.89,19.25-9.47,16.33-6.69,36.39,6.8,48.82l16.94,15.59-52.93,53.5Z"/>
  <path class="cls-1" d="M200.98,364.31c-10.97,0-19.91-8.92-19.91-19.89s8.94-19.91,19.91-19.91,19.91,8.94,19.91,19.91-8.94,19.89-19.91,19.89Z"/>
  <path class="cls-1" d="M122.66,431.99c-10.97,0-19.91-8.94-19.91-19.91s8.94-19.89,19.91-19.89,19.91,8.92,19.91,19.89-8.94,19.91-19.91,19.91Z"/>
  <path class="cls-1" d="M212.92,461.16c-10.97,0-19.91-8.92-19.91-19.89s8.94-19.89,19.91-19.89,19.89,8.92,19.89,19.89-8.92,19.89-19.89,19.89Z"/>
</svg>